PathFileType	4	(X/Y/Z)	AB13\squats_1.trc
DataRate	CameraRate	NumFrames	NumMarkers	Units	OrigDataRate	OrigDataStartFrame	OrigNumFrames
200.000000	200.000000	4	35	mm	200.000000	197	316
Frame#	Time	C7			LSHO			STRN			LASI			RASI			LPSI			RPSI			LGTR			RGTR			LTHC			LTHL			LTHR			LKNE			LMKNE			LSHC			LSHL			LSHR			LANK			LMANK			LMT1			LMT5			LCAL			RTHC			RTHL			RTHR			RKNE			RSHC			RSHL			RSHR			RANK			RMANK			RMT1			RMT5			RCAL			RMKNE			
		X1	Y1	Z1	X2	Y2	Z2	X3	Y3	Z3	X4	Y4	Z4	X5	Y5	Z5	X6	Y6	Z6	X7	Y7	Z7	X8	Y8	Z8	X9	Y9	Z9	X10	Y10	Z10	X11	Y11	Z11	X12	Y12	Z12	X13	Y13	Z13	X14	Y14	Z14	X15	Y15	Z15	X16	Y16	Z16	X17	Y17	Z17	X18	Y18	Z18	X19	Y19	Z19	X20	Y20	Z20	X21	Y21	Z21	X22	Y22	Z22	X23	Y23	Z23	X24	Y24	Z24	X25	Y25	Z25	X26	Y26	Z26	X27	Y27	Z27	X28	Y28	Z28	X29	Y29	Z29	X30	Y30	Z30	X31	Y31	Z31	X32	Y32	Z32	X33	Y33	Z33	X34	Y34	Z34	X35	Y35	Z35	

198	33.675	-3522.869751204561	1069.356824574751	2468.709597876174	-3590.304494273008	1008.813410201613	2609.596757986772	-3614.93278665444	915.0444368632885	2458.438838712265	-3467.856492240419	602.7214513922977	2579.731898691758	-3445.439210294093	598.7017533492196	2319.749678800568	-3252.667151787808	705.2279579165745	2510.987582971376	-3257.353603472104	715.1042067030421	2435.896784213544	-3366.09791977047	631.8135828470764	2663.522072650222	-3335.070544958233	613.6812889555893	2248.912219569666	-3474.033789448205	524.4769553061986	2669.006933137316	-3511.633713224966	377.6067069835576	2593.774580586627	-3533.979143836042	564.5118034663952	2588.452755610419	-3663.998222050251	403.7078921739693	2672.048863471487	-3671.95194016326	385.8440374650733	2554.371379952458	-3509.130263216173	218.8967019752028	2686.437928123123	-3587.54443925846	207.2826692215138	2648.903881787151	-3456.804222456109	207.0392077840401	2613.281466112828	-3423.609896662239	102.4453129015458	2675.062823460687	-3464.81287639063	94.78006675711229	2595.958046951497	-3564.177184546224	52.65519088776871	2652.360657396456	-3516.508752901522	52.54169190342299	2727.339532751952	-3365.088574295982	79.35196556614095	2625.584409667387	-3500.87258957592	379.1470705542592	2299.983279249095	-3432.976541182818	525.1725716916803	2234.492040591148	-3528.553886923991	565.6299893707536	2317.470534978019	-3629.284943206528	406.5053738708999	2220.905966252446	-3438.974086186462	192.7694430247207	2319.380900919529	-3492.685147019272	215.9692396175203	2240.506964161353	-3577.764719944979	220.1823315498702	2260.571633794687	-3417.257265504823	102.1538155361028	2268.056602710922	-3461.382836947794	97.43423693389973	2343.410137620788	-3558.654112500664	52.84646768371284	2282.108842445244	-3484.703814020159	45.9895773400331	2211.261184642583	-3353.1152783882	71.99992629925188	2321.207519770115	-3657.524840957499	400.2698572646546	2340.375533430097	
199	33.68	-3521.885862343943	1072.785976752015	2468.544556091172	-3589.506657224724	1012.460960146109	2609.383468230568	-3614.285665627269	918.6991805826345	2458.237158985477	-3467.841073273876	605.44987598053	2579.592030682003	-3445.433286413656	600.9033258325807	2319.255220166086	-3252.793256752099	708.3881955009615	2510.754295926512	-3257.50061459036	718.3103846113352	2435.649671130586	-3366.186384967992	634.5668409671803	2663.387687538723	-3335.149416808679	616.4657320701955	2248.61748332018	-3473.941931881421	526.3495451898165	2668.606791783728	-3510.660510837702	379.2079273854253	2593.4055376774	-3534.158916445235	566.0524703953068	2588.145530859574	-3663.203140710817	404.2572061422778	2671.550055282581	-3671.005410699423	386.3440313198995	2553.952666374712	-3508.668053938326	219.0537731815286	2686.352624628629	-3587.083514356414	207.6094946407849	2648.764815165522	-3456.334199850599	206.972472914269	2613.246511768652	-3423.469283639627	102.3258344661745	2675.200101427647	-3464.615510194982	94.80674052496754	2596.072044762467	-3564.068691281855	52.71282233666891	2652.39191597496	-3516.470393009522	52.53331079522926	2727.432237695721	-3364.940810745821	79.20950368775641	2625.795673877815	-3499.840224606154	380.7444453573681	2300.122358516692	-3432.874758817144	527.1528332270458	2234.445691322022	-3528.69919287162	567.0913434297399	2317.344239977927	-3628.520941231099	407.0584633476465	2221.185133283058	-3438.553321580212	192.7342903079376	2319.318302781569	-3492.279782570405	216.082343165139	2240.487491202111	-3577.320929250221	220.4818723506077	2260.642529043324	-3417.079094530171	102.0694364926668	2267.927595570067	-3461.160754619911	97.46412961697604	2343.307468121531	-3558.554469027999	52.9023215326448	2282.109833736721	-3484.661700656841	45.93505132589502	2211.210296343611	-3352.946969714696	71.85683399797472	2321.043144272017	-3656.608222029395	400.8510206996791	2340.585603388407	
200	33.685	-3520.900451319617	1076.266319534077	2468.38565259703	-3588.707919445867	1016.154724603976	2609.177055527145	-3613.635133814784	922.4062131667472	2458.038480932298	-3467.817645618492	608.2283521681267	2579.465125339253	-3445.440332445551	603.1279468693457	2318.737254374663	-3252.913504373397	711.5788161019537	2510.517435765864	-3257.642947712948	721.5521131120745	2435.399931207889	-3366.260035088468	637.3513065305684	2663.256709693107	-3335.242203664223	619.2923331555662	2248.320269899566	-3473.827649557601	528.2443431032542	2668.230557214159	-3509.673212324858	380.8362317658918	2593.056984809931	-3534.333219856698	567.6147427574626	2587.876332800693	-3662.373254602241	404.8207240100175	2671.106294689489	-3670.04401782343	386.8638274265484	2553.587483521279	-3508.186208540316	219.2107665504314	2686.297791758841	-3586.606285739106	207.9465552389105	2648.658026567594	-3455.852464479308	206.9086317956904	2613.235332072401	-3423.321607983826	102.19878207576	2675.352980093169	-3464.412146732593	94.84017102573158	2596.19713305302	-3563.956945162518	52.77613437766031	2652.432250940813	-3516.428007728524	52.52390886659249	2727.53600756383	-3364.785839967873	79.06708948472846	2626.013108948575	-3498.79691769793	382.3709551142096	2300.232558212117	-3432.773286853868	529.1629436838793	2234.383038394949	-3528.85106175588	568.5662389958013	2317.197283344971	-3627.741270370337	407.6217514366381	2221.438190015243	-3438.13022516273	192.7003854727944	2319.249403492759	-3491.86744444987	216.1971128145447	2240.459591432556	-3576.870127741069	220.7885420605688	2260.701062805966	-3416.899015952249	101.9850619599167	2267.801398238466	-3460.938818713431	97.49729292898421	2343.203291052894	-3558.455837100821	52.9599020609678	2282.107113550194	-3484.61902575866	45.88042314744916	2211.159603371068	-3352.78235886044	71.71645456829027	2320.880712847605	-3655.687272498755	401.4461676447199	2340.766818870867	
201	33.69	-3519.913952138515	1079.797737328533	2468.233734475828	-3587.9080832285	1019.89379546219	2608.97831182589	-3612.981489135933	926.1658195896852	2457.84296444738	-3467.786573683111	611.0568731157072	2579.350480383557	-3445.460871550501	605.3777900128877	2318.196711398017	-3253.027965707354	714.7985685078177	2510.277372855479	-3257.780057340697	724.8277177610713	2435.148060741374	-3366.319488172072	640.1660589523394	2663.12877150764	-3335.347487759764	622.158990225365	2248.02074345549	-3473.6915809041	530.1601482240994	2667.878718780985	-3508.673241211395	382.4910137144472	2592.72727319041	-3534.50279701317	569.1982067877113	2587.646004339809	-3661.509482557324	405.3978652961686	2670.717279341784	-3669.068949840761	387.4040587071033	2553.274826397359	-3507.685492942064	219.36759990765	2686.272682393097	-3586.112984083021	208.2932876647859	2648.582742332696	-3455.358960172655	206.8482122554545	2613.247649279207	-3423.166531740384	102.0646598506999	2675.520747290445	-3464.20250474483	94.87979149226234	2596.332735161219	-3563.842135601833	52.84505964738216	2652.481475133151	-3516.381427712746	52.51362299165667	2727.65013977643	-3364.623624426311	78.92492544906369	2626.236376103326	-3497.744044961182	384.0262368561525	2300.314761400676	-3432.671474012495	531.2008270790072	2234.303320296305	-3529.008814744981	570.0544842429396	2317.027835261815	-3626.945827026039	408.1954516291898	2221.663853955212	-3437.705286794706	192.6679564050074	2319.174881147157	-3491.448099947304	216.3138466947554	2240.423996185993	-3576.412581969573	221.1026533747878	2260.74691991065	-3416.717507408826	101.9009339909994	2267.678909641236	-3460.718027313235	97.53381290557574	2343.098300577191	-3558.358753317891	53.0191226521703	2282.100352062901	-3484.575884165602	45.82636842596551	2211.109361904688	-3352.622026177157	71.57914074231205	2320.721189860918	-3654.762911483071	402.0561461853541	2340.918100715424	
